# xmcd CD database file
#
# Track frame offsets:
#	150
#	1612
#	18469
#	40043
#	59158
#	75307
#	90999
#	114141
#	135841
#	156485
#	176695
#
# Disc length: 2552 seconds
#
# Revision: 1
# Processed by: cddbd v1.5.2PL0 Copyright (c) Steve Scherf et al.
# Submitted via: cdripper 1,0,39,0213
#
DISCID=7209f60b
DTITLE=Chris Whitley - Living With The Law
DYEAR=1991
DGENRE=Blues
TTITLE0=Excerpt
TTITLE1=Living With The Law
TTITLE2=Big Sky Country
TTITLE3=Kick The Stones
TTITLE4=Make The Dirt Stick
TTITLE5=Poison Girl
TTITLE6=Dust Radio
TTITLE7=Phone Call From Leavenworth
TTITLE8=I Forget You Every Day
TTITLE9=Long Way Around
TTITLE10=Look What Love Has Done
EXTD=YEAR: 1991
EXTT0=
EXTT1=
EXTT2=
EXTT3=
EXTT4=
EXTT5=
EXTT6=
EXTT7=
EXTT8=
EXTT9=
EXTT10=
PLAYORDER=
